# xmcd
#
# Track frame offsets:
#	150
#	15134
#	30717
#	48597
#	70174
#	87792
#	104790
#	117093
#	131403
#	147811
#	163881
#	177248
#	192975
#	212399
#	232901
#	247806
#	267268
#	278842
#	299205
#	317643
#	328696
#	338515
#
# Disc length: 4642
#
# Revision: 2
# Processed by: cddbd v1.5.1PL0 Copyright (c) Steve Scherf et al.
# Submitted via: audiograbber 1.83.01
# Normalized: r1:DSETVAR1
#
DISCID=3b122016
DTITLE=Various Artist - POP Baladas
DYEAR=2004
DGENRE=Latin
TTITLE0=Mix - Pista  1
TTITLE1=Kalimba - No me quiero enamorar
TTITLE2=Sin Bandera - Que lloro
TTITLE3=Benny and Miguel Bose - Volverte a ver
TTITLE4=Reyu - Se quien soy
TTITLE5=Andy and Llcas - Son de amores
TTITLE6=La 5ta Estacion - El sol no regresa
TTITLE7=Alejandra Guzman - Lipstick
TTITLE8=Mana - Sabanas frias
TTITLE9=Belinda - Angel
TTITLE10=Lu - Duele
TTITLE11=Reyu - Desde que llegaste Tu
TTITLE12=Alex Ubago - Aunque no te pueda ver
TTITLE13=Pepe Aguilar - Miedo
TTITLE14=Paulina Rubio - Te quise tanto
TTITLE15=Tiziano Ferro - Tardes negras
TTITLE16=Pepe Aguilar - EL cielo por el infierno
TTITLE17=Aleks Syntek and Ana Torroja - Duele el amor
TTITLE18=Federico Vega - Que chido
TTITLE19=Yahir and Nadia - Contigo si
TTITLE20=Miguel Islas - Tal vez eres Tu
TTITLE21=Sean Pall - Im still in love
EXTD=
EXTT0=
EXTT1=
EXTT2=
EXTT3=
EXTT4=
EXTT5=
EXTT6=
EXTT7=
EXTT8=
EXTT9=
EXTT10=
EXTT11=
EXTT12=
EXTT13=
EXTT14=
EXTT15=
EXTT16=
EXTT17=
EXTT18=
EXTT19=
EXTT20=
EXTT21=
PLAYORDER=
